<svg xmlns="http://www.w3.org/2000/svg" style="display:none">
  <symbol id="icon-x" viewBox="0 0 32 32">
    <path stroke-linejoin="miter" stroke-linecap="round" stroke-miterlimit="4" stroke-width="2.6667" d="M26.667 26.667l-21.333-21.333M26.667 5.333l-21.333 21.333"></path>
  </symbol>

  <symbol id="icon-arrow-left" viewBox="0 0 32 32">
    <path d="M21.414 3.272c0.375 0.375 0.586 0.884 0.586 1.414s-0.211 1.039-0.586 1.414l-9.9 9.9 9.9 9.9c0.364 0.377 0.566 0.882 0.561 1.407s-0.215 1.026-0.586 1.397c-0.371 0.371-0.872 0.581-1.397 0.586s-1.030-0.197-1.407-0.561l-11.314-11.314c-0.375-0.375-0.586-0.884-0.586-1.414s0.211-1.039 0.586-1.414l11.314-11.314c0.375-0.375 0.884-0.586 1.414-0.586s1.039 0.211 1.414 0.586z"></path>
  </symbol>

  <symbol id="icon-arrow-right" viewBox="0 0 32 32">
    <path d="M10.586 28.728c-0.375-0.375-0.586-0.884-0.586-1.414s0.211-1.039 0.586-1.414l9.9-9.9-9.9-9.9c-0.364-0.377-0.566-0.882-0.561-1.407s0.215-1.026 0.586-1.397c0.371-0.371 0.872-0.581 1.397-0.586s1.030 0.197 1.407 0.561l11.314 11.314c0.375 0.375 0.586 0.884 0.586 1.414s-0.211 1.039-0.586 1.414l-11.314 11.314c-0.375 0.375-0.884 0.586-1.414 0.586s-1.039-0.211-1.414-0.586z"></path>
  </symbol>

  <symbol id="icon-arrow-up" viewBox="0 0 32 32">
    <path d="M28.728 21.414c-0.375 0.375-0.884 0.586-1.414 0.586s-1.039-0.211-1.414-0.586l-9.9-9.9-9.9 9.9c-0.377 0.364-0.882 0.566-1.407 0.561s-1.026-0.215-1.397-0.586c-0.371-0.371-0.581-0.872-0.586-1.397s0.197-1.030 0.561-1.407l11.314-11.314c0.375-0.375 0.884-0.586 1.414-0.586s1.039 0.211 1.414 0.586l11.314 11.314c0.375 0.375 0.586 0.884 0.586 1.414s-0.211 1.039-0.586 1.414z"></path>
  </symbol>

  <symbol id="icon-arrow-down" viewBox="0 0 32 32">
    <path d="M3.272 10.586c0.375-0.375 0.884-0.586 1.414-0.586s1.039 0.211 1.414 0.586l9.9 9.9 9.9-9.9c0.377-0.364 0.882-0.566 1.407-0.561s1.026 0.215 1.397 0.586 0.581 0.872 0.586 1.397c0.005 0.524-0.197 1.030-0.561 1.407l-11.314 11.314c-0.375 0.375-0.884 0.586-1.414 0.586s-1.039-0.211-1.414-0.586l-11.314-11.314c-0.375-0.375-0.586-0.884-0.586-1.414s0.211-1.039 0.586-1.414z"></path>
  </symbol>

  <symbol id="icon-grid" viewBox="0 0 38 32">
    <path d="M1.6 0h35.2c0.884 0 1.6 0.716 1.6 1.6s-0.716 1.6-1.6 1.6h-35.2c-0.884 0-1.6-0.716-1.6-1.6s0.716-1.6 1.6-1.6z"></path>
    <path d="M1.6 9.6h35.2c0.884 0 1.6 0.716 1.6 1.6s-0.716 1.6-1.6 1.6h-35.2c-0.884 0-1.6-0.716-1.6-1.6s0.716-1.6 1.6-1.6z"></path>
    <path d="M1.6 19.2h35.2c0.884 0 1.6 0.716 1.6 1.6s-0.716 1.6-1.6 1.6h-35.2c-0.884 0-1.6-0.716-1.6-1.6s0.716-1.6 1.6-1.6z"></path>
    <path d="M1.6 28.8h35.2c0.884 0 1.6 0.716 1.6 1.6s-0.716 1.6-1.6 1.6h-35.2c-0.884 0-1.6-0.716-1.6-1.6s0.716-1.6 1.6-1.6z"></path>
  </symbol>
</svg>
